# xmcd CD database file
#
# Track frame offsets:
#	150
#	22322
#	38107
#	57655
#	69750
#	88725
#	112747
#	128747
#	146745
#	167325
#	185137
#	209357
#
# Disc length: 3072 seconds
#
# Revision: 6
# Processed by: cddbd v1.5.2PL0 Copyright (c) Steve Scherf et al.
# Submitted via: CDex 1.70beta3
#
DISCID=ab0bfe0c
DTITLE=THE BLUE HEARTS - DUG OUT
DYEAR=1993
DGENRE=Japanese Rock
TTITLE0=手紙
TTITLE1=緑のハッパ
TTITLE2=トーチソング
TTITLE3=雨上がり
TTITLE4=年をとろう
TTITLE5=夜の盗賊団
TTITLE6=キング・オブ・ルーキー
TTITLE7=ムチとマント
TTITLE8=宝もの
TTITLE9=夕暮れ
TTITLE10=パーティー
TTITLE11=チャンス
EXTD=YEAR: 1993
EXTT0=
EXTT1=
EXTT2=
EXTT3=
EXTT4=
EXTT5=
EXTT6=
EXTT7=
EXTT8=
EXTT9=
EXTT10=
EXTT11=
PLAYORDER=
